<svg viewBox="0 0 2617 2617" fill="none" xmlns="http://www.w3.org/2000/svg">
<rect width="2617" height="2617" rx="684.738" fill="white"/>
<path d="M1755.21 610.145C1781.78 611.585 1808.22 619.992 1831.03 637.138C1853.48 654.023 1867.76 675.871 1876.22 697.189C1892.27 737.64 1889.73 781.044 1881.97 815.406C1866.91 882.179 1819.54 965.947 1736.08 1000.51C1687.42 1020.66 1624.51 1023.9 1579.21 1024.18C1530.46 1024.47 1482.9 1020.95 1461.28 1019.78L1320.63 1012.16C1289.34 1010.47 1269.1 1013.55 1256.94 1017.55L1256.94 1017.55C1242.88 1022.17 1239.17 1026.65 1238.84 1027.05L1238.53 1027.44L1238.21 1027.82C1237.12 1029.13 1236.18 1030.4 1235.86 1034.8L1235.78 1035.95L1235.67 1037.1C1235.64 1037.4 1235.62 1037.67 1235.6 1037.92C1236.91 1039.56 1239 1041.77 1242.31 1044.43C1250.82 1050.47 1262.72 1057.17 1278.98 1063.98C1296.07 1071.14 1316.27 1078.05 1339.84 1084.53L1342.13 1085.15L1342.67 1085.3L1343.2 1085.45L1447.03 1114.99C1511.99 1132.83 1570.92 1155.51 1623.02 1183.68L1625.48 1185.01C1677.12 1213.03 1722.27 1246.51 1759.37 1286.22L1759.37 1286.22C1797.89 1327.02 1826.82 1373.87 1845.31 1426.3C1863.93 1479.08 1871.03 1535.56 1868.32 1594.5L1868.29 1595.1L1868.25 1595.7C1862.99 1684.41 1838.41 1772.17 1787.8 1842.05C1698.05 1975.64 1562.16 2021.86 1465.77 2028.77C1390.78 2034.15 1350.11 1977.31 1334.02 1946.51C1316.02 1912.05 1306.22 1870.96 1300.56 1835.99C1294.67 1799.54 1292.14 1762.21 1292.03 1731.03C1291.98 1715.41 1292.54 1700.26 1293.83 1686.76C1294.87 1675.91 1297.06 1657.51 1303.78 1640.48L1303.78 1640.48C1315.61 1610.47 1337.46 1593.44 1354.76 1584.4C1368.16 1577.39 1383.01 1573.33 1385.38 1572.61C1386 1572.43 1386.57 1572.25 1387.09 1572.09C1387.39 1571.09 1387.61 1569.99 1387.76 1568.75C1387.74 1568.21 1387.71 1567.82 1387.68 1567.57L1387.54 1567.39L1387.22 1566.96C1385.94 1565.25 1379.11 1557.7 1358.34 1547.84L1357.67 1547.52L1357 1547.19C1335.36 1536.46 1304.71 1524.85 1263.53 1512.93L1263.41 1512.9L1136.89 1476.07C1022.24 1443.17 925.879 1393.27 854.04 1322.22L853.924 1322.11L853.808 1321.99C774.994 1243.48 741.794 1141.88 748.37 1027.33C752.982 934.2 783.032 850.388 840.12 779.68C895.691 710.851 968.997 660.72 1056.47 627.862C1144.38 594.842 1240.84 582.277 1344.21 587.878L1755.21 610.145Z" fill="white" stroke="black" stroke-width="180"/>
<rect x="730" y="1562" width="504" height="504" rx="252" fill="white" stroke="black" stroke-width="150"/>
</svg>
